{
  "source": "C:\\Users\\Peter\\Desktop\\stuff\\MIUN\\quantitative_research\\video_compression\\videos\\BVI-HD\\BVI-HD_CDVL_videos\\ORIG\\Bookcase_1920x1080_60fps.mp4",
  "output": "C:\\Users\\Peter\\Desktop\\stuff\\MIUN\\quantitative_research\\video_compression\\compressed_videos\\BVI-HD\\av1\\4\\Bookcase_1920x1080_60fps_av1.mkv",
  "codec": "av1",
  "ok": "Input #0, mov,mp4,m4a,3gp,3g2,mj2, from 'C:\\Users\\Peter\\Desktop\\stuff\\MIUN\\quantitative_research\\video_compression\\videos\\BVI-HD\\BVI-HD_CDVL_videos\\ORIG\\Bookcase_1920x1080_60fps.mp4':\n  Metadata:\n    major_brand     : isom\n    minor_version   : 512\n    compatible_brands: isomiso2avc1mp41\n    encoder         : Lavf54.28.101\n  Duration: 00:00:05.00, start: 0.000000, bitrate: 336321 kb/s\n  Stream #0:0[0x1](und): Video: h264 (High 4:4:4 Predictive) (avc1 / 0x31637661), yuv420p(progressive), 1920x1080, 336316 kb/s, 60 fps, 60 tbr, 60 tbn (default)\n    Metadata:\n      handler_name    : VideoHandler\n      vendor_id       : [0][0][0][0]\n[out#0/matroska @ 000002700d6aad80] Codec AVOption b:a (set bitrate (in bits/s)) has not been used for any stream. The most likely reason is either wrong type (e.g. a video option with no video streams) or that it is a private option of some decoder which was not actually used for any stream.\nStream mapping:\n  Stream #0:0 -> #0:0 (h264 (native) -> av1 (libsvtav1))\nPress [q] to stop, [?] for help\nSvt[info]: -------------------------------------------\nSvt[info]: SVT [version]:\tSVT-AV1 Encoder Lib v3.1.0-19-g6ecfe8ec\nSvt[info]: SVT [build]  :\tGCC 15.2.0\t 64 bit\nSvt[info]: LIB Build date: Aug 17 2025 11:37:13\nSvt[info]: -------------------------------------------\nSvt[info]: Level of Parallelism: 5\nSvt[info]: Number of PPCS 93\nSvt[info]: [asm level on system : up to avx2]\nSvt[info]: [asm level selected : up to avx2]\nSvt[info]: -------------------------------------------\nSvt[info]: SVT [config]: main profile\ttier (auto)\tlevel (auto)\nSvt[info]: SVT [config]: width / height / fps numerator / fps denominator \t\t: 1920 / 1080 / 60 / 1\nSvt[info]: SVT [config]: bit-depth / color format \t\t\t\t\t: 8 / YUV420\nSvt[info]: SVT [config]: preset / tune / pred struct \t\t\t\t\t: 4 / PSNR / random access\nSvt[info]: SVT [config]: gop size / mini-gop size / key-frame type \t\t\t: 321 / 16 / key frame\nSvt[info]: SVT [config]: BRC mode / target bitrate (kbps)\t\t\t\t: VBR / 4000 \nSvt[info]: SVT [config]: AQ mode / Variance Boost \t\t\t\t\t: 2 / 0\nSvt[info]: SVT [config]: sharpness / luminance-based QP bias \t\t\t\t: 0 / 0\nSvt[info]: SVT [config]: QP scale compress strength \t\t\t\t\t: 0\nSvt[info]: -------------------------------------------\nOutput #0, matroska, to 'C:\\Users\\Peter\\Desktop\\stuff\\MIUN\\quantitative_research\\video_compression\\compressed_videos\\BVI-HD\\av1\\4\\Bookcase_1920x1080_60fps_av1.mkv':\n  Metadata:\n    major_brand     : isom\n    minor_version   : 512\n    compatible_brands: isomiso2avc1mp41\n    encoder         : Lavf62.3.100\n  Stream #0:0(und): Video: av1 (AV01 / 0x31305641), yuv420p(tv, progressive), 1920x1080, q=2-31, 4000 kb/s, 60 fps, 1k tbn (default)\n    Metadata:\n      encoder         : Lavc62.11.100 libsvtav1\n      handler_name    : VideoHandler\n      vendor_id       : [0][0][0][0]\n    Side data:\n      cpb: bitrate max/min/avg: 0/0/4000000 buffer size: 4000000 vbv_delay: N/A\nframe=    0 fps=0.0 q=0.0 size=       0KiB time=N/A bitrate=N/A speed=N/A elapsed=0:00:01.03    \nframe=    0 fps=0.0 q=0.0 size=       0KiB time=N/A bitrate=N/A speed=N/A elapsed=0:00:01.58    \nframe=    0 fps=0.0 q=0.0 size=       0KiB time=N/A bitrate=N/A speed=N/A elapsed=0:00:02.23    \nframe=    0 fps=0.0 q=0.0 size=       0KiB time=N/A bitrate=N/A speed=N/A elapsed=0:00:02.79    \nframe=    1 fps=0.3 q=10.0 size=       1KiB time=00:00:00.00 bitrate=N/A speed=   0x elapsed=0:00:03.32    \nframe=    1 fps=0.3 q=10.0 size=       1KiB time=00:00:00.00 bitrate=N/A speed=   0x elapsed=0:00:03.86    \nframe=    3 fps=0.7 q=34.0 size=       1KiB time=00:00:00.03 bitrate= 170.9kbits/s speed=0.00758x elapsed=0:00:04.39    \nframe=    8 fps=1.6 q=33.0 size=       1KiB time=00:00:00.11 bitrate=  48.8kbits/s speed=0.0236x elapsed=0:00:04.94    \nframe=   13 fps=2.4 q=32.0 size=       1KiB time=00:00:00.20 bitrate=  28.5kbits/s speed=0.0363x elapsed=0:00:05.50    \nframe=   19 fps=3.2 q=29.0 size=       1KiB time=00:00:00.30 bitrate=  19.0kbits/s speed=0.0498x elapsed=0:00:06.02    \nframe=   24 fps=3.7 q=26.0 size=       1KiB time=00:00:00.38 bitrate=  14.9kbits/s speed=0.0585x elapsed=0:00:06.54    \nframe=   26 fps=3.6 q=23.0 size=       1KiB time=00:00:00.41 bitrate=  13.7kbits/s speed=0.0584x elapsed=0:00:07.13    \nframe=   30 fps=3.9 q=22.0 size=       1KiB time=00:00:00.48 bitrate=  11.8kbits/s speed=0.0627x elapsed=0:00:07.70    \nframe=   35 fps=4.2 q=23.0 size=       1KiB time=00:00:00.56 bitrate=  10.1kbits/s speed=0.0687x elapsed=0:00:08.25    \nframe=   38 fps=4.3 q=20.0 size=       1KiB time=00:00:00.61 bitrate=   9.2kbits/s speed=0.0703x elapsed=0:00:08.77    \nframe=   39 fps=4.2 q=22.0 size=       1KiB time=00:00:00.63 bitrate=   9.0kbits/s speed=0.0681x elapsed=0:00:09.29    \nframe=   44 fps=4.5 q=24.0 size=       1KiB time=00:00:00.71 bitrate=   7.9kbits/s speed=0.0728x elapsed=0:00:09.85    \nframe=   49 fps=4.7 q=12.0 size=       1KiB time=00:00:00.80 bitrate=   7.1kbits/s speed=0.0765x elapsed=0:00:10.45    \nframe=   51 fps=4.6 q=18.0 size=       1KiB time=00:00:00.83 bitrate=   6.8kbits/s speed=0.0758x elapsed=0:00:10.98    \nframe=   55 fps=4.8 q=23.0 size=       1KiB time=00:00:00.90 bitrate=   6.3kbits/s speed=0.0782x elapsed=0:00:11.50    \nframe=   59 fps=4.9 q=22.0 size=       1KiB time=00:00:00.96 bitrate=   5.9kbits/s speed=0.0804x elapsed=0:00:12.02    \nframe=   63 fps=5.0 q=18.0 size=       1KiB time=00:00:01.03 bitrate=   5.5kbits/s speed=0.0824x elapsed=0:00:12.53    \nframe=   67 fps=5.1 q=20.0 size=       1KiB time=00:00:01.10 bitrate=   5.2kbits/s speed=0.084x elapsed=0:00:13.08    \nframe=   71 fps=5.2 q=20.0 size=       1KiB time=00:00:01.16 bitrate=   4.9kbits/s speed=0.0856x elapsed=0:00:13.62    \nframe=   75 fps=5.3 q=21.0 size=       1KiB time=00:00:01.23 bitrate=   4.6kbits/s speed=0.087x elapsed=0:00:14.17    \nframe=   79 fps=5.4 q=19.0 size=       1KiB time=00:00:01.30 bitrate=   4.4kbits/s speed=0.0884x elapsed=0:00:14.69    \nframe=   84 fps=5.5 q=23.0 size=       1KiB time=00:00:01.38 bitrate=   4.1kbits/s speed=0.0908x elapsed=0:00:15.22    \nframe=   87 fps=5.5 q=24.0 size=       1KiB time=00:00:01.43 bitrate=   4.0kbits/s speed=0.091x elapsed=0:00:15.75    \nframe=   91 fps=5.6 q=22.0 size=       1KiB time=00:00:01.50 bitrate=   3.8kbits/s speed=0.0918x elapsed=0:00:16.33    \nframe=   95 fps=5.6 q=22.0 size=       1KiB time=00:00:01.56 bitrate=   3.6kbits/s speed=0.0929x elapsed=0:00:16.86    \nframe=  101 fps=5.8 q=22.0 size=       1KiB time=00:00:01.66 bitrate=   3.4kbits/s speed=0.0959x elapsed=0:00:17.37    \nframe=  103 fps=5.7 q=19.0 size=       1KiB time=00:00:01.70 bitrate=   3.4kbits/s speed=0.0948x elapsed=0:00:17.92    \nframe=  107 fps=5.8 q=23.0 size=       1KiB time=00:00:01.76 bitrate=   3.2kbits/s speed=0.0956x elapsed=0:00:18.47    \nframe=  111 fps=5.8 q=22.0 size=       1KiB time=00:00:01.83 bitrate=   3.1kbits/s speed=0.0965x elapsed=0:00:18.99    \nframe=  117 fps=6.0 q=24.0 size=       1KiB time=00:00:01.93 bitrate=   2.9kbits/s speed=0.0989x elapsed=0:00:19.54    \nframe=  120 fps=6.0 q=25.0 size=       1KiB time=00:00:01.96 bitrate=   2.9kbits/s speed=0.098x elapsed=0:00:20.07    \nframe=  124 fps=6.0 q=25.0 size=       1KiB time=00:00:02.05 bitrate=   2.8kbits/s speed=0.0993x elapsed=0:00:20.64    \nframe=  127 fps=6.0 q=25.0 size=       1KiB time=00:00:02.10 bitrate=   2.7kbits/s speed=0.0992x elapsed=0:00:21.17    \nframe=  134 fps=6.2 q=26.0 size=       1KiB time=00:00:02.21 bitrate=   2.6kbits/s speed=0.102x elapsed=0:00:21.69    \nframe=  137 fps=6.1 q=18.0 size=       1KiB time=00:00:02.26 bitrate=   2.5kbits/s speed=0.102x elapsed=0:00:22.28    \nframe=  142 fps=6.2 q=26.0 size=       1KiB time=00:00:02.35 bitrate=   2.4kbits/s speed=0.103x elapsed=0:00:22.81    \nframe=  148 fps=6.3 q=28.0 size=       1KiB time=00:00:02.45 bitrate=   2.3kbits/s speed=0.105x elapsed=0:00:23.35    \nframe=  151 fps=6.3 q=27.0 size=       1KiB time=00:00:02.50 bitrate=   2.3kbits/s speed=0.105x elapsed=0:00:23.88    \nframe=  154 fps=6.3 q=28.0 size=       1KiB time=00:00:02.55 bitrate=   2.2kbits/s speed=0.105x elapsed=0:00:24.39    \nframe=  160 fps=6.4 q=25.0 size=       1KiB time=00:00:02.65 bitrate=   2.1kbits/s speed=0.106x elapsed=0:00:24.92    \nframe=  166 fps=6.5 q=29.0 size=       1KiB time=00:00:02.75 bitrate=   2.1kbits/s speed=0.108x elapsed=0:00:25.46    \nframe=  168 fps=6.5 q=29.0 size=       1KiB time=00:00:02.76 bitrate=   2.1kbits/s speed=0.107x elapsed=0:00:25.97    \nframe=  172 fps=6.5 q=28.0 size=       1KiB time=00:00:02.85 bitrate=   2.0kbits/s speed=0.107x elapsed=0:00:26.53    \nframe=  176 fps=6.5 q=29.0 size=       1KiB time=00:00:02.91 bitrate=   2.0kbits/s speed=0.108x elapsed=0:00:27.06    \nframe=  182 fps=6.6 q=31.0 size=       1KiB time=00:00:03.01 bitrate=   1.9kbits/s speed=0.109x elapsed=0:00:27.63    \nframe=  184 fps=6.5 q=31.0 size=       1KiB time=00:00:03.05 bitrate=   1.9kbits/s speed=0.108x elapsed=0:00:28.17    \nframe=  188 fps=6.5 q=29.0 size=       1KiB time=00:00:03.11 bitrate=   1.8kbits/s speed=0.108x elapsed=0:00:28.74    \nframe=  194 fps=6.6 q=31.0 size=       1KiB time=00:00:03.21 bitrate=   1.8kbits/s speed=0.11x elapsed=0:00:29.29    \nframe=  199 fps=6.7 q=31.0 size=       1KiB time=00:00:03.30 bitrate=   1.7kbits/s speed=0.111x elapsed=0:00:29.83    \nframe=  205 fps=6.7 q=31.0 size=       1KiB time=00:00:03.35 bitrate=   1.7kbits/s speed=0.11x elapsed=0:00:30.37    \nframe=  209 fps=6.8 q=11.0 size=       1KiB time=00:00:03.46 bitrate=   1.6kbits/s speed=0.112x elapsed=0:00:30.91    \nframe=  217 fps=6.9 q=23.0 size=       1KiB time=00:00:03.60 bitrate=   1.6kbits/s speed=0.115x elapsed=0:00:31.43    \nframe=  219 fps=6.9 q=29.0 size=       1KiB time=00:00:03.63 bitrate=   1.6kbits/s speed=0.114x elapsed=0:00:31.96    \nframe=  225 fps=6.9 q=12.0 size=       1KiB time=00:00:03.73 bitrate=   1.5kbits/s speed=0.115x elapsed=0:00:32.50    \nframe=  233 fps=7.1 q=27.0 size=       1KiB time=00:00:03.86 bitrate=   1.5kbits/s speed=0.117x elapsed=0:00:33.03    \nframe=  239 fps=7.1 q=30.0 size=       1KiB time=00:00:03.96 bitrate=   1.4kbits/s speed=0.118x elapsed=0:00:33.55    \nframe=  245 fps=7.2 q=28.0 size=       1KiB time=00:00:04.06 bitrate=   1.4kbits/s speed=0.119x elapsed=0:00:34.12    \nframe=  249 fps=7.2 q=24.0 size=       1KiB time=00:00:04.13 bitrate=   1.4kbits/s speed=0.119x elapsed=0:00:34.64    \nframe=  255 fps=7.2 q=30.0 size=       1KiB time=00:00:04.23 bitrate=   1.3kbits/s speed=0.12x elapsed=0:00:35.20    \nframe=  263 fps=7.4 q=26.0 size=       1KiB time=00:00:04.36 bitrate=   1.3kbits/s speed=0.122x elapsed=0:00:35.75    \nframe=  265 fps=7.3 q=27.0 size=       1KiB time=00:00:04.40 bitrate=   1.3kbits/s speed=0.121x elapsed=0:00:36.32    \nframe=  271 fps=7.4 q=30.0 size=       1KiB time=00:00:04.50 bitrate=   1.3kbits/s speed=0.122x elapsed=0:00:36.84    \nframe=  281 fps=7.5 q=27.0 size=       1KiB time=00:00:04.66 bitrate=   1.2kbits/s speed=0.125x elapsed=0:00:37.36    \nframe=  285 fps=7.5 q=31.0 size=       1KiB time=00:00:04.73 bitrate=   1.2kbits/s speed=0.125x elapsed=0:00:37.89    \n[out#0/matroska @ 000002700d6aad80] video:2268KiB audio:0KiB subtitle:0KiB other streams:0KiB global headers:0KiB muxing overhead: 0.091857%\nframe=  300 fps=7.9 q=39.0 Lsize=    2270KiB time=00:00:04.98 bitrate=3731.2kbits/s speed=0.131x elapsed=0:00:38.16    \n",
  "seconds": 38.56484389305115,
  "probe_out": {}
}